<svg width="142" height="77" viewBox="0 0 142 77" fill="none" xmlns="http://www.w3.org/2000/svg">
<path fill-rule="evenodd" clip-rule="evenodd" d="M83.947 0.614659C83.7097 1.22138 83.7729 2.64451 84.1131 4.35596C84.2253 4.92069 84.1024 5.48263 83.647 6.48589C82.2454 9.57453 82.7773 12.3072 84.9967 13.4187L85.7425 13.7922L85.1208 13.1225C83.5366 11.4159 83.3519 9.46629 84.5381 6.97108C85.2771 5.41685 85.2951 4.88104 84.6667 3.10054C84.3433 2.18452 84.2258 1.42945 84.3157 0.847922C84.4747 -0.181235 84.3008 -0.291102 83.947 0.614659ZM79.5426 5.49779C79.1853 6.1325 79.1813 6.61722 79.5247 7.5568C79.7627 8.20737 79.7184 8.41987 79.1414 9.39305C78.1278 11.1038 78.4609 12.6174 80.0271 13.4185C80.9858 13.9086 81.057 13.6867 80.21 12.8491C79.2976 11.9468 79.2792 11.08 80.1401 9.55517C80.7421 8.48869 80.7655 8.35153 80.4661 7.63074C80.2887 7.20364 80.0729 6.43457 79.9866 5.92139C79.8382 5.04129 79.813 5.01727 79.5426 5.49779ZM87.4619 5.70329C87.2505 6.16189 87.2526 6.54724 87.4706 7.35316C87.7293 8.31001 87.7093 8.46839 87.2482 9.10893C86.1681 10.6086 86.4193 12.4353 87.8216 13.2808C88.9314 13.9501 89.1133 13.8346 88.2997 12.9776C87.192 11.8111 87.1625 11.4861 88.0136 9.82785L88.7736 8.34733L88.2587 7.29928C87.9315 6.63331 87.7968 6.04199 87.889 5.6781C88.0799 4.92676 87.8121 4.94262 87.4619 5.70329ZM42.6944 11.0877C29.3138 13.0749 22.1199 25.8656 27.865 37.4544C35.3658 52.5847 58.0228 50.1126 62.267 33.7007C65.333 21.8449 54.5039 9.33357 42.6944 11.0877ZM0 13.6191V15.6018H5.18937H10.3787V31.3471V47.0923H12.5017H14.6246V31.3471V15.6018H19.814H25.0033V13.6191V11.6363H12.5017H0V13.6191ZM67.9371 23.3578C67.9399 32.9799 68.0043 35.3466 68.2961 36.5715C71.7175 50.9248 96.239 51.4576 100.356 37.2678L100.736 35.9573L103.042 35.8476C109.061 35.561 110.982 33.1745 110.982 25.982C110.982 18.7943 109.078 16.362 103.257 16.1127L100.957 16.014V13.8253V11.6363H98.3621H95.7674L95.7634 22.658C95.7601 31.3377 95.6872 34.0158 95.4205 35.2612C93.2768 45.2649 77.7231 46.3592 73.7546 36.7854C73.2534 35.5759 73.2392 35.2545 73.1701 23.5911L73.0991 11.6363H70.5164H67.9336L67.9371 23.3578ZM115.581 29.3643V47.0923H117.704H119.827V40.2111V33.3298H123.089H126.351L131.286 40.2001L136.221 47.0704L138.903 47.0814C141.017 47.09 141.537 47.0305 141.354 46.8007C140.032 45.1359 131.152 33.038 131.161 32.9127C131.168 32.8213 131.831 32.438 132.636 32.0609C138.81 29.1658 140.266 20.6788 135.465 15.5661C132.274 12.1682 130.458 11.6363 122.043 11.6363H115.581V29.3643ZM47.7752 15.7294C58.5056 18.484 62.1024 31.4971 54.2586 39.1868C42.9562 50.267 24.7547 37.2255 31.7596 23.0662C34.5838 17.358 41.5994 14.1442 47.7752 15.7294ZM127.461 15.8285C134.411 16.954 136.355 25.1014 130.502 28.5722C128.855 29.5486 127.219 29.8309 123.208 29.8309H119.827V22.7163V15.6018L122.953 15.6032C124.672 15.6039 126.701 15.7054 127.461 15.8285ZM105.511 19.6762C107.427 20.5794 107.669 21.2265 107.754 25.6624C107.863 31.4007 107.16 32.4336 103.038 32.5948L100.957 32.6764V25.8586V19.0408L102.785 19.1469C103.856 19.2092 104.985 19.4285 105.511 19.6762ZM73.886 28.0231C73.9627 34.4352 74.036 35.7007 74.3825 36.5955C77.3825 44.3426 90.4939 44.6599 94.0925 37.0727L94.4701 35.456L94.7796 28.1397L94.8532 20.5003H84.3244H73.7959L73.886 28.0231ZM60.763 50.2477C54.7007 51.7667 50.234 57.3573 50.2461 63.4114C50.2685 74.7286 63.6809 81.1763 72.1586 73.9451L73.1993 73.0575L72.0803 71.5068C70.6483 69.5222 70.746 69.5567 69.4191 70.5642C65.529 73.5175 61.1124 73.337 57.5923 70.0809C49.2023 62.3202 60.0651 49.5663 69.3241 56.3067L70.7125 57.3172L71.9122 55.6547L73.1118 53.992L72.5936 53.4464C70.0279 50.7457 64.6154 49.2822 60.763 50.2477ZM120.771 63.3041V76.7167H122.891H125.011L125.073 68.2906L125.135 59.8644L133.368 68.4072C137.896 73.1058 141.691 76.95 141.8 76.95C141.91 76.95 142 70.9668 142 63.654V50.358H139.88H137.76L137.698 58.6577L137.636 66.9572L129.407 58.4245C124.88 53.7312 121.085 49.8915 120.974 49.8915C120.862 49.8915 120.771 55.9272 120.771 63.3041ZM2.18001 63.4791L2.24086 76.6001H4.36379H6.48671L6.60465 70.55L6.72259 64.4998L11.4206 70.6083L16.1184 76.7167H18.6739C20.0793 76.7167 21.2288 76.6381 21.2281 76.5418C21.2271 76.3876 19.554 74.1889 12.8109 65.48L11.064 63.2239L15.675 56.9225C18.2109 53.4567 20.2857 50.5619 20.2857 50.4896C20.2857 50.4173 19.1757 50.358 17.8189 50.358H15.3518L11.0373 56.33L6.72259 62.302L6.65961 56.33L6.59663 50.358H4.35789H2.11891L2.18001 63.4791ZM23.881 63.4791L23.9419 76.6001H26.0648H28.1877L28.2486 63.4791L28.3097 50.358H26.0648H23.8199L23.881 63.4791ZM31.1362 52.4574V54.5567H34.6721H38.2079L38.2692 65.5784L38.3306 76.6001H40.4535H42.5764L42.6377 65.5784L42.6991 54.5567H46.2349H49.7708V52.4574V50.358H40.4535H31.1362V52.4574ZM76.1894 63.5374V76.7167H78.3123H80.4352V71.1184V65.5201H86.0963H91.7575V71.1184V76.7167H93.8804H96.0033V63.5374V50.358H93.8804H91.7575V55.8397V61.3214H86.0963H80.4352V55.8397V50.358H78.3123H76.1894V63.5374ZM100.778 63.4791L100.839 76.6001H108.741H116.643L116.711 74.4424L116.778 72.2847H110.991H105.203V68.7858V65.2868H110.156H115.11V63.1875V61.0881H110.156H105.203V57.8224V54.5567H110.982H116.761V52.4574V50.358H108.739H100.717L100.778 63.4791Z" fill="#FCCE47"/>
</svg>
